<svg width="24" height="24" xmlns="http://www.w3.org/2000/svg"><g><path style="stroke:none;stroke-width:1;stroke-dasharray:none;stroke-linecap:butt;stroke-dashoffset:0;stroke-linejoin:miter;stroke-miterlimit:4;fill:#000;fill-rule:nonzero;opacity:1" transform="matrix(.83 0 0 .83 2.04 2.04)" d="M6.5 11a6.5 6.5 0 1 0 6.5 6.5A6.51 6.51 0 0 0 6.5 11ZM9 17.22a.5.5 0 0 1-.45.28h-.93a.12.12 0 0 0-.12.12v2.88a1 1 0 0 1-2 0v-2.88a.13.13 0 0 0-.12-.12H4.5a.5.5 0 0 1-.45-.28.51.51 0 0 1 .06-.53l2-2.5a.51.51 0 0 1 .78 0l2 2.5a.51.51 0 0 1 .11.53ZM13.19 7a1.49 1.49 0 1 0-.02-2.98A1.49 1.49 0 0 0 13.19 7Z"/><path style="stroke:none;stroke-width:1;stroke-dasharray:none;stroke-linecap:butt;stroke-dashoffset:0;stroke-linejoin:miter;stroke-miterlimit:4;fill:#000;fill-rule:nonzero;opacity:1" transform="matrix(.83 0 0 .83 2.04 2.04)" d="M23.41 3 21 .59A2 2 0 0 0 19.59 0H8a2 2 0 0 0-2 2v7.28a.26.26 0 0 0 .24.25c.37 0 1 0 1.49.08A.25.25 0 0 0 8 9.36V2.5a.5.5 0 0 1 .5-.5h10.88a.47.47 0 0 1 .35.15l2.12 2.12a.47.47 0 0 1 .15.35V18a.5.5 0 0 1-.5.5h-6.86a.25.25 0 0 0-.24.21 8.9 8.9 0 0 1-.4 1.46.24.24 0 0 0 .23.33H22a2 2 0 0 0 2-2V4.41A2 2 0 0 0 23.41 3Z"/><path style="stroke:none;stroke-width:1;stroke-dasharray:none;stroke-linecap:butt;stroke-dashoffset:0;stroke-linejoin:miter;stroke-miterlimit:4;fill:#000;fill-rule:nonzero;opacity:1" transform="matrix(.83 0 0 .83 2.04 2.04)" d="M20.48 12.9a.19.19 0 0 0 0-.19l-3.25-5.17a.35.35 0 0 0-.31-.18.38.38 0 0 0-.32.18l-1.81 2.89a.17.17 0 0 1-.16.09.16.16 0 0 1-.15-.09l-.65-1a.37.37 0 0 0-.32-.17.37.37 0 0 0-.31.17l-1.25 2a.26.26 0 0 0 0 .31 8 8 0 0 1 1 1.2.24.24 0 0 0 .19.1h7.08a.21.21 0 0 0 .26-.14Z"/></g></svg>