<svg width="24" height="24" xmlns="http://www.w3.org/2000/svg"><path style="stroke:none;stroke-width:1;stroke-dasharray:none;stroke-linecap:butt;stroke-dashoffset:0;stroke-linejoin:miter;stroke-miterlimit:4;fill:#fff;fill-rule:nonzero;opacity:1" transform="matrix(.53 0 0 .53 -.72 -.72)" d="M10 5a5 5 0 0 0-5 5v13a5 5 0 0 0 5 5h6v-3h-5.5A2.5 2.5 0 0 1 8 22.5V13h19v5h3v-8a5 5 0 0 0-5-5H10zm2 11a1 1 0 0 0-1 1v3a1 1 0 0 0 1 1h3a1 1 0 0 0 1-1v-3a1 1 0 0 0-1-1h-3zm8 0a1 1 0 0 0-1 1v2.264A6.955 6.955 0 0 1 23 18h1v-1a1 1 0 0 0-1-1h-3zm3 4a5 5 0 0 0-5 5v13a5 5 0 0 0 5 5h15a5 5 0 0 0 5-5V25a5 5 0 0 0-5-5H23zm.5 3h14c1.379 0 2.5 1.122 2.5 2.5V27H21v-1.5c0-1.378 1.121-2.5 2.5-2.5zm.5 9h3a1 1 0 0 1 1 1v3a1 1 0 0 1-1 1h-3a1 1 0 0 1-1-1v-3a1 1 0 0 1 1-1zm10 0h3a1 1 0 0 1 1 1v3a1 1 0 0 1-1 1h-3a1 1 0 0 1-1-1v-3a1 1 0 0 1 1-1z"/></svg>