<svg width="24" height="24" xmlns="http://www.w3.org/2000/svg"><g><path style="stroke:none;stroke-width:1;stroke-dasharray:none;stroke-linecap:butt;stroke-dashoffset:0;stroke-linejoin:miter;stroke-miterlimit:4;fill:#d1d5db ;fill-rule:nonzero;opacity:1" transform="matrix(.83 0 0 .83 2.04 2.04)" d="M12 22a10 10 0 0 1-4.36-1 .24.24 0 0 1-.14-.23v-1.16a2.5 2.5 0 0 1 .89-1.91 4.45 4.45 0 0 0 1.12-1.44A7.11 7.11 0 0 1 10 14a4.49 4.49 0 0 0-4.5-4.25H2.58a.24.24 0 0 1-.19-.1.23.23 0 0 1-.05-.21 10 10 0 0 1 14.55-6.16.25.25 0 0 1 .12.28.26.26 0 0 1-.24.19h-2.52a2.75 2.75 0 1 0 0 5.5 2.59 2.59 0 0 1 1.25.33 6.63 6.63 0 0 1 1-.08 7 7 0 0 1 6.43 4.25.5.5 0 0 0 .53.3.5.5 0 0 0 .43-.43A12.36 12.36 0 0 0 24 12c0-6.627-5.373-12-12-12S0 5.373 0 12c0 4.92 4 12 12 12a12.36 12.36 0 0 0 1.62-.11.5.5 0 0 0 .43-.43.5.5 0 0 0-.3-.53 7.09 7.09 0 0 1-1.44-.83.49.49 0 0 0-.31-.1Z"/><path style="stroke:none;stroke-width:1;stroke-dasharray:none;stroke-linecap:butt;stroke-dashoffset:0;stroke-linejoin:miter;stroke-miterlimit:4;fill:#d1d5db ;fill-rule:nonzero;opacity:1" transform="matrix(.83 0 0 .83 2.04 2.04)" d="M21.36 20a.5.5 0 0 1-.07-.61 5.53 5.53 0 1 0-1.95 1.95.5.5 0 0 1 .61.07l2.34 2.35a1 1 0 0 0 1.42 0 1 1 0 0 0 0-1.42ZM13 16.53a3.53 3.53 0 1 1 7.06 0 3.53 3.53 0 0 1-7.06 0Z"/></g></svg>