<svg width="24" height="24" xmlns="http://www.w3.org/2000/svg"><g><path style="stroke:#d1d5db;stroke-width:2;stroke-dasharray:none;stroke-linecap:round;stroke-dashoffset:0;stroke-linejoin:round;stroke-miterlimit:4;fill:none;fill-rule:nonzero;opacity:1" transform="matrix(.83 0 0 .83 2.04 2.04)" d="M10.118 3.75c0 1.362-2.03 4.542-2.75 5.628a.3.3 0 0 1-.5 0c-.721-1.086-2.75-4.267-2.75-5.629a3 3 0 1 1 6 0v.001Z" stroke-linecap="round"/><path style="stroke:#d1d5db;stroke-width:2;stroke-dasharray:none;stroke-linecap:butt;stroke-dashoffset:0;stroke-linejoin:miter;stroke-miterlimit:4;fill:none;fill-rule:nonzero;opacity:1" transform="matrix(.83 0 0 .83 2.04 2.04)" d="M7.118 4.125a.375.375 0 0 1 0-.75M7.118 4.125a.375.375 0 1 0 0-.75" stroke-linecap="round"/><path style="stroke:#d1d5db;stroke-width:2;stroke-dasharray:none;stroke-linecap:round;stroke-dashoffset:0;stroke-linejoin:round;stroke-miterlimit:4;fill:none;fill-rule:nonzero;opacity:1" transform="matrix(.83 0 0 .83 2.04 2.04)" d="M15.368 21a5.25 5.25 0 1 0 0-10.5 5.25 5.25 0 0 0 0 10.5ZM22.868 23.25l-3.788-3.788M11.18 23.188A9.007 9.007 0 0 1 2.6 9.293M12.759 5.643A9 9 0 0 1 16.8 8.222" stroke-linecap="round"/><path style="stroke:#d1d5db;stroke-width:2;stroke-dasharray:none;stroke-linecap:round;stroke-dashoffset:0;stroke-linejoin:round;stroke-miterlimit:4;fill:none;fill-rule:nonzero;opacity:1" transform="matrix(.83 0 0 .83 2.04 2.04)" d="M1.867 10.65h1.95a1.8 1.8 0 0 1 1.8 1.8v1.95a1.8 1.8 0 0 0 .528 1.273l1.386 1.386a1.8 1.8 0 0 1 .435 1.842L7.6 20.016a1.792 1.792 0 0 1-.627.871l-1.464 1.094" stroke-linecap="round"/></g></svg>