<svg id='Suitcase_24' width='24' height='24' viewBox='0 0 24 24' xmlns='http://www.w3.org/2000/svg' xmlns:xlink='http://www.w3.org/1999/xlink'><rect width='24' height='24' stroke='none' fill='#d1d5db ' opacity='0'/>
<g transform="matrix(0.19 0 0 0.19 12 12)" >
<path style="stroke: none; stroke-width: 1.5; stroke-dasharray: none; stroke-linecap: butt; stroke-dashoffset: 0; stroke-linejoin: miter; stroke-miterlimit: 4; fill: #d1d5db ; fill-rule: nonzero; opacity: 1;" transform=" translate(-64, -77)" d="M 76 27 L 52 27 C 47.6 27 44 30.6 44 35 L 44 45 L 24 45 C 16.8 45 11 50.8 11 58 L 11 114 C 11 121.2 16.8 127 24 127 L 104 127 C 111.2 127 117 121.2 117 114 L 117 58 C 117 50.8 111.2 45 104 45 L 84 45 L 84 35 C 84 30.6 80.4 27 76 27 z M 50 35 C 50 33.9 50.9 33 52 33 L 76 33 C 77.1 33 78 33.9 78 35 L 78 45 L 50 45 L 50 35 z M 31 121 L 24 121 C 20.1 121 17 117.9 17 114 L 17 58 C 17 54.1 20.1 51 24 51 L 31 51 L 31 121 z M 97 51 L 104 51 C 107.9 51 111 54.1 111 58 L 111 114 C 111 117.9 107.9 121 104 121 L 97 121 L 97 51 z M 91 51 L 91 121 L 37 121 L 37 51 L 91 51 z" stroke-linecap="round" />
</g>
</svg>