<svg width="24" height="24" xmlns="http://www.w3.org/2000/svg"><path style="stroke:none;stroke-width:1;stroke-dasharray:none;stroke-linecap:butt;stroke-dashoffset:0;stroke-linejoin:miter;stroke-miterlimit:4;fill:#d1d5db ;fill-rule:nonzero;opacity:1" transform="matrix(.19 0 0 .19 -.16 -2.63)" d="M11 58v56c0 7.2 5.8 13 13 13h14V45H24c-7.2 0-13 5.8-13 13zm106 56V58c0-7.2-5.8-13-13-13H90v82h14c7.2 0 13-5.8 13-13zM76 27H52c-4.4 0-8 3.6-8 8v92h40V35c0-4.4-3.6-8-8-8zm2 18H50V35c0-1.1.9-2 2-2h24c1.1 0 2 .9 2 2v10z"/></svg>