<svg width="24" height="24" xmlns="http://www.w3.org/2000/svg"><path style="stroke:none;stroke-width:1;stroke-dasharray:none;stroke-linecap:butt;stroke-dashoffset:0;stroke-linejoin:miter;stroke-miterlimit:4;fill:#fff;fill-rule:nonzero;opacity:1" d="M14.5 2A3.514 3.514 0 0 0 11 5.5h2c0-.875.625-1.5 1.5-1.5s1.5.625 1.5 1.5S15.375 7 14.5 7H2v2h12.5C16.422 9 18 7.422 18 5.5S16.422 2 14.5 2ZM2 11v2h16c1.191 0 2 .809 2 2 0 1.191-.809 2-2 2-1.191 0-2-.809-2-2h-2c0 2.21 1.79 4 4 4s4-1.79 4-4-1.79-4-4-4Zm0 4v2h6.5c.875 0 1.5.625 1.5 1.5S9.375 20 8.5 20 7 19.375 7 18.5H5C5 20.422 6.578 22 8.5 22s3.5-1.578 3.5-3.5S10.422 15 8.5 15Z"/></svg>