<svg width="24" height="24" xmlns="http://www.w3.org/2000/svg"><path style="stroke:none;stroke-width:1;stroke-dasharray:none;stroke-linecap:butt;stroke-dashoffset:0;stroke-linejoin:miter;stroke-miterlimit:4;fill:#fff;fill-rule:nonzero;opacity:1" transform="matrix(.71 0 0 .71 .285 .64)" d="M13 2C8.455 2 3 5.636 3 12v3h.02c-.004.034-.02.064-.02.1v1.8c0 1.968 1.127 3.027 2.021 3.467.674 1.635 2.296 3.997 4.979 5.067v-2.202c-2.316-1.299-3.205-3.808-3.252-3.949l-.186-.504-.503-.144C5.882 18.583 5 18.257 5 16.9v-1.8c0-.035-.016-.065-.02-.1H6c0-6.364 8.818-1.182 11.545-7.545 0 0 2.455 1.872 2.455 7.545h1.02c-.004.034-.02.064-.02.1v.9h2v-.9c0-.035-.016-.065-.02-.1H23v-3c0-3.636-1.818-8.182-5.455-8.182 0 0-.909-1.818-4.545-1.818zm1 16c-1.093 0-2 .907-2 2v8c0 1.093.907 2 2 2h14c1.093 0 2-.907 2-2v-8c0-1.093-.907-2-2-2H14zm0 2h14v8H14v-8zm7 1c-1.657 0-3 1.511-3 3.375 0 1.067.45 2.007 1.137 2.625h3.728c.686-.618 1.135-1.558 1.135-2.625C24 22.511 22.657 21 21 21zm-5 2a1 1 0 1 0 0 2 1 1 0 0 0 0-2zm10 0a1 1 0 1 0 0 2 1 1 0 0 0 0-2z"/></svg>