<svg width="24" height="24" xmlns="http://www.w3.org/2000/svg"><g><path style="stroke:none;stroke-width:1;stroke-dasharray:none;stroke-linecap:butt;stroke-dashoffset:0;stroke-linejoin:miter;stroke-miterlimit:4;fill:#fff;fill-rule:nonzero;opacity:1" transform="matrix(.83 0 0 .83 2.04 2.04)" d="M19.5 8.94a4.44 4.44 0 0 0-8.08-2.54 9.66 9.66 0 0 1 6.18 6.18 4.42 4.42 0 0 0 1.9-3.64ZM8.43 7.17a8.4 8.4 0 1 0 0 16.8 8.4 8.4 0 0 0 0-16.8ZM3.84 16l-2.25-1.28a6.9 6.9 0 0 1 11.72-4L12 12H9.68a1.54 1.54 0 0 0-1.2.57l-.72.91a1.53 1.53 0 0 0 .11 2l1 1c.361.362.879.52 1.38.42l1.75-.31 1 .51-.71 1.41a2 2 0 0 0-.17 1.31l.27 1.37a6.88 6.88 0 0 1-8.84-.74l.7-.72a2 2 0 0 0 .6-1.44v-.52A2.05 2.05 0 0 0 3.84 16ZM23.21 8.19h-1.53a.75.75 0 1 0 0 1.5h1.53a.75.75 0 1 0 0-1.5ZM19.74 5a.77.77 0 0 0 .53-.22l1.08-1.08a.75.75 0 1 0-1.06-1.06l-1.08 1.09a.75.75 0 0 0 0 1.06.79.79 0 0 0 .53.21ZM15.06 3.07a.76.76 0 0 0 .75-.75V.79a.75.75 0 1 0-1.5 0v1.53c0 .414.336.75.75.75ZM9.84 4.79a.79.79 0 0 0 .53.22.77.77 0 0 0 .53-.22.74.74 0 0 0 0-1.06L9.82 2.65a.74.74 0 0 0-1.06 0 .75.75 0 0 0 0 1.06ZM20.27 13.1a.74.74 0 0 0-1.06 0 .75.75 0 0 0 0 1.06l1.08 1.08a.79.79 0 0 0 .53.22.77.77 0 0 0 .53-.22.74.74 0 0 0 0-1.06Z"/></g></svg>