<svg width="24" height="24" xmlns="http://www.w3.org/2000/svg"><path style="stroke:none;stroke-width:1;stroke-dasharray:none;stroke-linecap:butt;stroke-dashoffset:0;stroke-linejoin:miter;stroke-miterlimit:4;fill:#fff;fill-rule:nonzero;opacity:1" transform="matrix(.99 0 0 .99 .12 .06)" d="M12 2C8.738 2 5.847 3.577 4.02 6H4v.025a9.967 9.967 0 0 0-1.902 4.586c-.64 4.54 2.038 8.753 6.228 10.61a8.929 8.929 0 0 0 3.678.777c.552.001.996-.454.996-1.004V13a1 1 0 0 0-1-1h-2a1 1 0 1 1 .012-2c.548.007.988-.452.988-1V8a1 1 0 0 1 1-1h1a2 2 0 0 0 2-2v-.41c2.928 1.19 5 4.06 5 7.41l-.002.035h.004a1 1 0 1 0 1.994-.129C21.946 6.436 17.482 2 12 2zm-7.791 8.209L9 15v1a2 2 0 0 0 2 2v1.932c-3.94-.495-7-3.86-7-7.932 0-.616.077-1.214.209-1.791zm11.424.768a.717.717 0 0 0-.633.714v7.143a.5.5 0 0 0 .846.361l1.427-1.357 1.547 3.566a1.2 1.2 0 1 0 2.192-.97L19.457 17h1.576a.5.5 0 0 0 .348-.86l-5.16-4.966a.708.708 0 0 0-.588-.197z"/></svg>