<svg width="24" height="24" xmlns="http://www.w3.org/2000/svg"><g><path style="stroke:none;stroke-width:1;stroke-dasharray:none;stroke-linecap:butt;stroke-dashoffset:0;stroke-linejoin:miter;stroke-miterlimit:4;fill:#fff;fill-rule:nonzero;opacity:1" d="m6.6.05 4.8 6.8H3.3L0 12.95l-3.3-6.1h-8.1l4.8-6.8-4.8-6.9h8.1l3.3-6.1 3.3 6.1h8.1z" transform="matrix(.31 0 0 .31 12.62 11.364)"/><path style="stroke:none;stroke-width:1;stroke-dasharray:none;stroke-linecap:butt;stroke-dashoffset:0;stroke-linejoin:miter;stroke-miterlimit:4;fill:#fff;fill-rule:nonzero;opacity:1" transform="matrix(.31 0 0 .31 2.08 2.08)" d="M34 5 8 11.1V35c0 12.1 9.9 22 22 22h4c12.1 0 22-9.9 22-22V10.4L34 5zm0 4 18 4.4V35c0 9.9-8.1 18-18 18s-18-8.1-18-18V13.2L34 9z"/></g></svg>