<svg width="24" height="24" xmlns="http://www.w3.org/2000/svg"><g><path style="stroke:none;stroke-width:1;stroke-dasharray:none;stroke-linecap:butt;stroke-dashoffset:0;stroke-linejoin:miter;stroke-miterlimit:4;fill:#fff;fill-rule:nonzero;opacity:1" transform="matrix(.42 0 0 .42 1.92 1.92)" d="m38.927 27.575-3.125-7.916a1.04 1.04 0 0 0-1.938 0l-3.125 7.916a1.041 1.041 0 1 0 1.937.765l.315-.799h3.681l.315.799a1.041 1.041 0 0 0 1.353.586 1.04 1.04 0 0 0 .587-1.351zm-5.113-2.117 1.018-2.58 1.018 2.58h-2.036zM20.042 18.999c-.576 0-1.042.467-1.042 1.042v7.916a1.042 1.042 0 1 0 2.084 0v-7.916c0-.576-.466-1.042-1.042-1.042zM17.115 19.081a1.04 1.04 0 0 0-1.365.556l-2.373 5.636-2.373-5.636a1.043 1.043 0 0 0-1.921.808l3.333 7.916a1.041 1.041 0 0 0 1.922 0l3.333-7.916a1.042 1.042 0 0 0-.556-1.364zM26.759 22.957h-1.146c-.546 0-.989-.421-.989-.937s.443-.937.989-.937h1.094c.523 0 .772.329.784.344a1.04 1.04 0 1 0 1.766-1.104c-.084-.136-.874-1.323-2.549-1.323h-1.094c-1.695 0-3.073 1.355-3.073 3.021s1.379 3.021 3.073 3.021h1.146c.546 0 .989.421.989.937s-.443.937-.989.937h-1.479c-.547 0-.955-.276-1.049-.383a1.042 1.042 0 0 0-1.724 1.169c.429.644 1.52 1.297 2.773 1.297h1.479c1.694 0 3.072-1.355 3.072-3.021s-1.379-3.021-3.073-3.021z"/><path style="stroke:#fff;stroke-width:3;stroke-dasharray:none;stroke-linecap:round;stroke-dashoffset:0;stroke-linejoin:round;stroke-miterlimit:10;fill:none;fill-rule:nonzero;opacity:1" transform="matrix(.42 0 0 .42 1.92 1.92)" d="M25.239 39.5H9.5c0-2.76-2.24-5-5-5v-21c2.76 0 5-2.24 5-5M18 8.5h20.5c0 2.76 2.24 5 5 5v21c-2.76 0-5 2.24-5 5h-3.668" stroke-linecap="round"/></g></svg>