<svg width="24" height="24" xmlns="http://www.w3.org/2000/svg"><path style="stroke:none;stroke-width:1;stroke-dasharray:none;stroke-linecap:butt;stroke-dashoffset:0;stroke-linejoin:miter;stroke-miterlimit:4;fill:#9dc8f9;fill-rule:nonzero;opacity:1" transform="matrix(1.67 0 0 1.67 -1.36 -1.36)" d="M5.5 2A3.507 3.507 0 0 0 2 5.5v5C2 12.427 3.573 14 5.5 14h5c1.927 0 3.5-1.573 3.5-3.5v-5C14 3.573 12.427 2 10.5 2h-5zm0 1h5C11.887 3 13 4.113 13 5.5v5c0 1.387-1.113 2.5-2.5 2.5h-5A2.492 2.492 0 0 1 3 10.5v-5C3 4.113 4.113 3 5.5 3z"/></svg>